<?xml version="1.0" encoding="iso-8859-1"?>
<!-- Uploaded to: SVG Repo, www.svgrepo.com, Generator: SVG Repo Mixer Tools -->
<svg fill="#000000" height="800px" width="800px" version="1.1" id="Layer_1" xmlns="http://www.w3.org/2000/svg" xmlns:xlink="http://www.w3.org/1999/xlink" 
	 viewBox="0 0 502 502" xml:space="preserve">
<g>
	<g>
		<g>
			<path d="M492,112H10c-5.523,0-10,4.477-10,10v33v68v56v68v33c0,5.523,4.477,10,10,10h482c5.522,0,10-4.477,10-10v-33v-68v-56v-68
				v-33C502,116.477,497.522,112,492,112z M20,233h44.543C61.647,238.361,60,244.491,60,251c0,6.509,1.647,12.639,4.543,18H20V233z
				 M20,289h78c20.953,0,38-17.047,38-38s-17.047-38-38-38H20v-48h43c47.42,0,86,38.58,86,86s-38.58,86-86,86H20V289z M80,251
				c0-9.925,8.075-18,18-18s18,8.075,18,18s-8.075,18-18,18S80,260.925,80,251z M251,241c-5.523,0-10,4.477-10,10v14.956
				c-4.82-3.233-8-8.729-8-14.956c0-9.925,8.075-18,18-18s18,8.075,18,18c0,6.227-3.18,11.723-8,14.956V251
				C261,245.477,256.522,241,251,241z M482,269h-44.543c2.896-5.361,4.543-11.491,4.543-18c0-6.509-1.647-12.639-4.543-18H482V269z
				 M482,213h-78c-20.953,0-38,17.047-38,38s17.047,38,38,38h78v48h-43c-47.421,0-86-38.58-86-86s38.579-86,86-86h43V213z M422,251
				c0,9.925-8.075,18-18,18s-18-8.075-18-18s8.075-18,18-18S422,241.075,422,251z M482,145h-43c-58.448,0-106,47.551-106,106
				c0,58.449,47.552,106,106,106h43v13H261v-82.345c16.116-4.402,28-19.163,28-36.655c0-20.953-17.047-38-38-38s-38,17.047-38,38
				c0,17.492,11.884,32.253,28,36.655V370H20v-13h43c58.449,0,106-47.551,106-106c0-58.449-47.551-106-106-106H20v-13h221v26
				c0,5.523,4.477,10,10,10c5.522,0,10-4.477,10-10v-26h221V145z"/>
			<path d="M251,177c-5.523,0-10,4.477-10,10v7c0,5.523,4.477,10,10,10c5.522,0,10-4.477,10-10v-7C261,181.477,256.522,177,251,177z
				"/>
		</g>
	</g>
</g>
</svg>